# Blender v3.0.0 OBJ File: ''
# www.blender.org
mtllib test_ship.mtl
o Cone.001
v 0.000000 0.303294 -2.313446
v 0.303294 -0.000000 -2.313446
v -0.000000 -0.303294 -2.313446
v -0.303294 0.000000 -2.313446
v 0.000000 -0.000000 -1.706857
v 0.000000 0.344110 -1.821080
v 1.000000 0.000000 -1.821080
v -0.000000 -0.344110 -1.821080
v -1.000000 0.000000 -1.821080
v 0.000000 -0.000000 0.178920
vt 0.105823 0.725739
vt 0.155319 0.565513
vt 0.210262 0.725739
vt 0.101136 0.565513
vt 0.101136 0.734898
vt 0.002344 0.599390
vt 0.644282 0.617898
vt 0.751410 0.510770
vt 0.751410 0.617898
vt 0.324075 0.725739
vt 0.373571 0.565513
vt 0.428514 0.725739
vt 0.214949 0.725739
vt 0.269892 0.565513
vt 0.319388 0.725739
vt 0.735014 0.002344
vt 0.735014 0.506083
vt 0.477058 0.010743
vt 0.235014 0.002344
vt 0.235014 0.560826
vt 0.002344 0.114040
vt 0.639595 0.774905
vt 0.477058 0.718974
vt 0.639595 0.510770
vt 0.997656 0.002344
vt 0.997656 0.506083
vt 0.739701 0.010743
vt 0.472371 0.002344
vt 0.472371 0.560826
vt 0.239701 0.114040
vt 0.644282 0.510770
vt 0.477058 0.983109
vn 0.6667 0.6667 0.3333
vn 0.6667 -0.6667 0.3333
vn 0.0000 0.0000 -1.0000
vn -0.6667 -0.6667 0.3333
vn -0.6667 0.6667 0.3333
vn 0.3212 0.9333 0.1606
vn 0.3212 -0.9333 0.1606
vn -0.3212 -0.9333 0.1606
vn -0.3212 0.9333 0.1606
usemtl Material.001
s off
f 1/1/1 5/2/1 2/3/1
f 2/4/2 5/5/2 3/6/2
f 1/7/3 3/8/3 4/9/3
f 3/10/4 5/11/4 4/12/4
f 4/13/5 5/14/5 1/15/5
f 6/16/6 10/17/6 7/18/6
f 7/19/7 10/20/7 8/21/7
f 6/22/3 8/23/3 9/24/3
f 8/25/8 10/26/8 9/27/8
f 9/28/9 10/29/9 6/30/9
f 1/7/3 2/31/3 3/8/3
f 6/22/3 7/32/3 8/23/3
