# Blender v3.0.0 OBJ File: ''
# www.blender.org
mtllib simplesphere.mtl
o Sphere
v 0.000000 0.707107 -0.707107
v 0.000000 0.382683 -0.923880
v 0.000000 -0.382683 -0.923880
v 0.000000 -0.923880 -0.382683
v 0.146447 0.923880 -0.353553
v 0.270598 0.707107 -0.653281
v 0.353553 0.382683 -0.853553
v 0.382683 -0.000000 -0.923880
v 0.353553 -0.382683 -0.853553
v 0.270598 -0.707107 -0.653281
v 0.146447 -0.923880 -0.353553
v 0.270598 0.923880 -0.270598
v 0.500000 0.707107 -0.500000
v 0.653282 0.382683 -0.653281
v 0.707107 -0.000000 -0.707107
v 0.653282 -0.382683 -0.653281
v 0.500000 -0.707107 -0.500000
v 0.270598 -0.923880 -0.270598
v 0.353554 0.923880 -0.146447
v 0.653282 0.707107 -0.270598
v 0.853554 0.382683 -0.353553
v 0.923880 -0.000000 -0.382683
v 0.853554 -0.382683 -0.353553
v 0.653282 -0.707107 -0.270598
v 0.353554 -0.923880 -0.146447
v 0.382684 0.923880 0.000000
v 0.707107 0.707107 0.000000
v 0.923880 0.382683 0.000000
v 1.000000 -0.000000 0.000000
v 0.923880 -0.382683 0.000000
v 0.707107 -0.707107 0.000000
v 0.382684 -0.923880 0.000000
v 0.353553 0.923880 0.146447
v 0.653282 0.707107 0.270598
v 0.853553 0.382683 0.353554
v 0.923879 -0.000000 0.382684
v 0.853553 -0.382683 0.353554
v 0.653282 -0.707107 0.270598
v 0.353553 -0.923880 0.146447
v 0.270598 0.923880 0.270598
v 0.500000 0.707107 0.500000
v 0.653281 0.382683 0.653282
v 0.707107 -0.000000 0.707107
v 0.653281 -0.382683 0.653282
v 0.500000 -0.707107 0.500000
v 0.270598 -0.923880 0.270598
v 0.146447 0.923880 0.353554
v 0.270598 0.707107 0.653282
v 0.353553 0.382683 0.853554
v 0.382683 -0.000000 0.923880
v 0.353553 -0.382683 0.853554
v 0.270598 -0.707107 0.653282
v 0.146447 -0.923880 0.353554
v -0.000000 1.000000 0.000000
v -0.000000 0.923880 0.382684
v -0.000000 0.707107 0.707107
v -0.000000 0.382683 0.923880
v -0.000000 -0.000000 1.000000
v -0.000000 -0.382683 0.923880
v -0.000000 -0.707107 0.707107
v -0.000000 -0.923880 0.382684
v -0.146447 0.923880 0.353553
v -0.270598 0.707107 0.653282
v -0.353554 0.382683 0.853553
v -0.382684 -0.000000 0.923880
v -0.353554 -0.382683 0.853553
v -0.270598 -0.707107 0.653282
v -0.146447 -0.923880 0.353553
v -0.270598 0.923880 0.270598
v -0.500000 0.707107 0.500000
v -0.653282 0.382683 0.653281
v -0.707107 -0.000000 0.707107
v -0.653282 -0.382683 0.653281
v -0.500000 -0.707107 0.500000
v -0.270598 -0.923880 0.270598
v 0.000000 -1.000000 0.000000
v -0.353553 0.923880 0.146447
v -0.653282 0.707107 0.270598
v -0.853553 0.382683 0.353553
v -0.923880 -0.000000 0.382683
v -0.853553 -0.382683 0.353553
v -0.653282 -0.707107 0.270598
v -0.353553 -0.923880 0.146447
v -0.382683 0.923880 -0.000000
v -0.707107 0.707107 -0.000000
v -0.923879 0.382683 -0.000000
v -1.000000 -0.000000 -0.000000
v -0.923879 -0.382683 -0.000000
v -0.707107 -0.707107 -0.000000
v -0.382683 -0.923880 -0.000000
v -0.353553 0.923880 -0.146447
v -0.653281 0.707107 -0.270598
v -0.853553 0.382683 -0.353554
v -0.923879 -0.000000 -0.382684
v -0.853553 -0.382683 -0.353554
v -0.653281 -0.707107 -0.270598
v -0.353553 -0.923880 -0.146447
v -0.270598 0.923880 -0.270598
v -0.500000 0.707107 -0.500000
v -0.653281 0.382683 -0.653282
v -0.707106 -0.000000 -0.707107
v -0.653281 -0.382683 -0.653282
v -0.500000 -0.707107 -0.500000
v -0.270598 -0.923880 -0.270598
v -0.146446 0.923880 -0.353553
v -0.270598 0.707107 -0.653281
v -0.353553 0.382683 -0.853553
v -0.382683 -0.000000 -0.923880
v -0.353553 -0.382683 -0.853553
v -0.270598 -0.707107 -0.653281
v -0.146446 -0.923880 -0.353553
v 0.000000 0.923880 -0.382683
v 0.000001 -0.000000 -1.000000
v 0.000000 -0.707107 -0.707107
vt 0.750000 0.875000
vt 0.687500 0.750000
vt 0.750000 0.750000
vt 0.750000 0.250000
vt 0.687500 0.125000
vt 0.750000 0.125000
vt 0.750000 0.500000
vt 0.687500 0.375000
vt 0.750000 0.375000
vt 0.687500 0.625000
vt 0.750000 0.625000
vt 0.718750 1.000000
vt 0.687500 0.875000
vt 0.718750 0.000000
vt 0.687500 0.250000
vt 0.687500 0.500000
vt 0.625000 0.375000
vt 0.625000 0.625000
vt 0.656250 1.000000
vt 0.625000 0.875000
vt 0.656250 0.000000
vt 0.625000 0.125000
vt 0.625000 0.250000
vt 0.625000 0.500000
vt 0.625000 0.750000
vt 0.593750 0.000000
vt 0.562500 0.125000
vt 0.562500 0.250000
vt 0.562500 0.500000
vt 0.562500 0.750000
vt 0.562500 0.375000
vt 0.562500 0.625000
vt 0.593750 1.000000
vt 0.562500 0.875000
vt 0.500000 0.625000
vt 0.500000 0.500000
vt 0.500000 0.875000
vt 0.500000 0.750000
vt 0.500000 0.125000
vt 0.500000 0.375000
vt 0.531250 1.000000
vt 0.531250 0.000000
vt 0.500000 0.250000
vt 0.437500 0.250000
vt 0.437500 0.125000
vt 0.437500 0.375000
vt 0.437500 0.750000
vt 0.437500 0.625000
vt 0.468750 1.000000
vt 0.437500 0.875000
vt 0.468750 0.000000
vt 0.437500 0.500000
vt 0.375000 0.750000
vt 0.375000 0.625000
vt 0.406250 1.000000
vt 0.375000 0.875000
vt 0.406250 0.000000
vt 0.375000 0.125000
vt 0.375000 0.250000
vt 0.375000 0.500000
vt 0.375000 0.375000
vt 0.343750 0.000000
vt 0.312500 0.125000
vt 0.312500 0.250000
vt 0.312500 0.500000
vt 0.312500 0.750000
vt 0.312500 0.375000
vt 0.312500 0.625000
vt 0.343750 1.000000
vt 0.312500 0.875000
vt 0.250000 0.750000
vt 0.250000 0.250000
vt 0.250000 0.125000
vt 0.250000 0.375000
vt 0.250000 0.625000
vt 0.281250 1.000000
vt 0.250000 0.875000
vt 0.281250 0.000000
vt 0.250000 0.500000
vt 0.187500 0.125000
vt 0.187500 0.500000
vt 0.187500 0.375000
vt 0.187500 0.625000
vt 0.218750 1.000000
vt 0.187500 0.875000
vt 0.218750 0.000000
vt 0.187500 0.250000
vt 0.187500 0.750000
vt 0.156250 1.000000
vt 0.125000 0.875000
vt 0.156250 0.000000
vt 0.125000 0.125000
vt 0.125000 0.250000
vt 0.125000 0.500000
vt 0.125000 0.750000
vt 0.125000 0.375000
vt 0.125000 0.625000
vt 0.062500 0.250000
vt 0.062500 0.500000
vt 0.062500 0.750000
vt 0.062500 0.125000
vt 0.062500 0.375000
vt 0.062500 0.625000
vt 0.093750 1.000000
vt 0.062500 0.875000
vt 0.093750 0.000000
vt 0.000000 0.125000
vt 0.000000 0.375000
vt 0.000000 0.750000
vt 0.000000 0.625000
vt 0.031250 1.000000
vt 0.000000 0.875000
vt 0.031250 0.000000
vt 0.000000 0.250000
vt 0.000000 0.500000
vt 1.000000 0.500000
vt 0.937500 0.375000
vt 1.000000 0.375000
vt 1.000000 0.625000
vt 0.937500 0.750000
vt 0.937500 0.625000
vt 1.000000 0.875000
vt 0.968750 1.000000
vt 0.937500 0.875000
vt 0.968750 0.000000
vt 1.000000 0.125000
vt 0.937500 0.125000
vt 0.937500 0.250000
vt 1.000000 0.250000
vt 0.937500 0.500000
vt 1.000000 0.750000
vt 0.906250 0.000000
vt 0.875000 0.125000
vt 0.875000 0.250000
vt 0.875000 0.625000
vt 0.875000 0.500000
vt 0.875000 0.750000
vt 0.875000 0.375000
vt 0.906250 1.000000
vt 0.875000 0.875000
vt 0.812500 0.625000
vt 0.812500 0.500000
vt 0.812500 0.750000
vt 0.812500 0.125000
vt 0.812500 0.375000
vt 0.843750 1.000000
vt 0.812500 0.875000
vt 0.843750 0.000000
vt 0.812500 0.250000
vt 0.781250 1.000000
vt 0.781250 0.000000
vn 0.0000 0.9152 -0.4031
vn 0.2751 0.6952 -0.6641
vn 0.0000 0.6952 -0.7188
vn 0.0000 -0.6952 -0.7188
vn 0.1542 -0.9152 -0.3724
vn 0.0000 -0.9152 -0.4031
vn 0.0000 0.0000 -1.0000
vn 0.3548 -0.3743 -0.8567
vn 0.0000 -0.3743 -0.9273
vn 0.3548 0.3743 -0.8567
vn 0.0000 0.3743 -0.9273
vn 0.0000 1.0000 0.0000
vn 0.1542 0.9152 -0.3724
vn 0.0000 -1.0000 0.0000
vn 0.2751 -0.6952 -0.6641
vn 0.3827 0.0000 -0.9239
vn 0.6557 -0.3743 -0.6557
vn 0.6557 0.3743 -0.6557
vn 0.2850 0.9152 -0.2850
vn 0.2850 -0.9152 -0.2850
vn 0.5083 -0.6952 -0.5083
vn 0.7071 0.0000 -0.7071
vn 0.5083 0.6952 -0.5083
vn 0.3724 -0.9152 -0.1542
vn 0.6641 -0.6952 -0.2751
vn 0.9239 0.0000 -0.3827
vn 0.6641 0.6952 -0.2751
vn 0.8567 -0.3743 -0.3548
vn 0.8567 0.3743 -0.3548
vn 0.3724 0.9152 -0.1542
vn 0.9273 0.3743 0.0000
vn 1.0000 0.0000 0.0000
vn 0.4031 0.9152 0.0000
vn 0.7188 0.6952 0.0000
vn 0.4031 -0.9152 0.0000
vn 0.9273 -0.3743 0.0000
vn 0.7188 -0.6952 0.0000
vn 0.6641 -0.6952 0.2751
vn 0.3724 -0.9152 0.1542
vn 0.8567 -0.3743 0.3548
vn 0.6641 0.6952 0.2751
vn 0.8567 0.3743 0.3548
vn 0.3724 0.9152 0.1542
vn 0.9239 0.0000 0.3827
vn 0.5083 0.6952 0.5083
vn 0.6557 0.3743 0.6557
vn 0.2850 0.9152 0.2850
vn 0.2850 -0.9152 0.2850
vn 0.5083 -0.6952 0.5083
vn 0.7071 0.0000 0.7071
vn 0.6557 -0.3743 0.6557
vn 0.1542 -0.9152 0.3724
vn 0.2751 -0.6952 0.6641
vn 0.3827 0.0000 0.9239
vn 0.2751 0.6952 0.6641
vn 0.3548 -0.3743 0.8567
vn 0.3548 0.3743 0.8567
vn 0.1542 0.9152 0.3724
vn 0.0000 0.6952 0.7188
vn 0.0000 -0.6952 0.7188
vn 0.0000 -0.9152 0.4031
vn 0.0000 -0.3743 0.9273
vn 0.0000 0.3743 0.9273
vn 0.0000 0.9152 0.4031
vn 0.0000 0.0000 1.0000
vn -0.1542 -0.9152 0.3724
vn -0.3827 0.0000 0.9239
vn -0.3548 -0.3743 0.8567
vn -0.3548 0.3743 0.8567
vn -0.1542 0.9152 0.3724
vn -0.2751 -0.6952 0.6641
vn -0.2751 0.6952 0.6641
vn -0.2850 0.9152 0.2850
vn -0.2850 -0.9152 0.2850
vn -0.5083 -0.6952 0.5083
vn -0.7071 0.0000 0.7071
vn -0.5083 0.6952 0.5083
vn -0.6557 -0.3743 0.6557
vn -0.6557 0.3743 0.6557
vn -0.6641 -0.6952 0.2751
vn -0.9239 0.0000 0.3827
vn -0.6641 0.6952 0.2751
vn -0.3724 -0.9152 0.1542
vn -0.8567 -0.3743 0.3548
vn -0.8567 0.3743 0.3548
vn -0.3724 0.9152 0.1542
vn -0.4031 -0.9152 0.0000
vn -0.9273 -0.3743 0.0000
vn -0.7188 0.6952 0.0000
vn -0.9273 0.3743 0.0000
vn -0.4031 0.9152 0.0000
vn -0.7188 -0.6952 0.0000
vn -1.0000 0.0000 0.0000
vn -0.8567 -0.3743 -0.3548
vn -0.6641 0.6952 -0.2751
vn -0.8567 0.3743 -0.3548
vn -0.3724 0.9152 -0.1542
vn -0.3724 -0.9152 -0.1542
vn -0.6641 -0.6952 -0.2751
vn -0.9239 0.0000 -0.3827
vn -0.2850 -0.9152 -0.2850
vn -0.5083 -0.6952 -0.5083
vn -0.6557 0.3743 -0.6557
vn -0.7071 0.0000 -0.7071
vn -0.5083 0.6952 -0.5083
vn -0.6557 -0.3743 -0.6557
vn -0.2850 0.9152 -0.2850
vn -0.3548 0.3743 -0.8567
vn -0.3827 0.0000 -0.9239
vn -0.2751 0.6952 -0.6641
vn -0.1542 -0.9152 -0.3724
vn -0.3548 -0.3743 -0.8567
vn -0.1542 0.9152 -0.3724
vn -0.2751 -0.6952 -0.6641
usemtl None
s 1
f 112/1/1 6/2/2 1/3/3
f 114/4/4 11/5/5 4/6/6
f 113/7/7 9/8/8 3/9/9
f 1/3/3 7/10/10 2/11/11
f 112/1/1 54/12/12 5/13/13
f 76/14/14 4/6/6 11/5/5
f 114/4/4 9/8/8 10/15/15
f 113/7/7 7/10/10 8/16/16
f 8/16/16 16/17/17 9/8/8
f 6/2/2 14/18/18 7/10/10
f 5/13/13 54/19/12 12/20/19
f 76/21/14 11/5/5 18/22/20
f 9/8/8 17/23/21 10/15/15
f 7/10/10 15/24/22 8/16/16
f 5/13/13 13/25/23 6/2/2
f 10/15/15 18/22/20 11/5/5
f 76/26/14 18/22/20 25/27/24
f 16/17/17 24/28/25 17/23/21
f 14/18/18 22/29/26 15/24/22
f 12/20/19 20/30/27 13/25/23
f 17/23/21 25/27/24 18/22/20
f 15/24/22 23/31/28 16/17/17
f 13/25/23 21/32/29 14/18/18
f 12/20/19 54/33/12 19/34/30
f 22/29/26 28/35/31 29/36/32
f 20/30/27 26/37/33 27/38/34
f 24/28/25 32/39/35 25/27/24
f 22/29/26 30/40/36 23/31/28
f 20/30/27 28/35/31 21/32/29
f 19/34/30 54/41/12 26/37/33
f 76/42/14 25/27/24 32/39/35
f 23/31/28 31/43/37 24/28/25
f 32/39/35 38/44/38 39/45/39
f 29/36/32 37/46/40 30/40/36
f 28/35/31 34/47/41 35/48/42
f 26/37/33 54/49/12 33/50/43
f 76/51/14 32/39/35 39/45/39
f 30/40/36 38/44/38 31/43/37
f 28/35/31 36/52/44 29/36/32
f 26/37/33 34/47/41 27/38/34
f 35/48/42 41/53/45 42/54/46
f 33/50/43 54/55/12 40/56/47
f 76/57/14 39/45/39 46/58/48
f 37/46/40 45/59/49 38/44/38
f 35/48/42 43/60/50 36/52/44
f 33/50/43 41/53/45 34/47/41
f 38/44/38 46/58/48 39/45/39
f 36/52/44 44/61/51 37/46/40
f 76/62/14 46/58/48 53/63/52
f 44/61/51 52/64/53 45/59/49
f 42/54/46 50/65/54 43/60/50
f 40/56/47 48/66/55 41/53/45
f 46/58/48 52/64/53 53/63/52
f 44/61/51 50/65/54 51/67/56
f 42/54/46 48/66/55 49/68/57
f 40/56/47 54/69/12 47/70/58
f 47/70/58 56/71/59 48/66/55
f 53/63/52 60/72/60 61/73/61
f 50/65/54 59/74/62 51/67/56
f 48/66/55 57/75/63 49/68/57
f 47/70/58 54/76/12 55/77/64
f 76/78/14 53/63/52 61/73/61
f 51/67/56 60/72/60 52/64/53
f 49/68/57 58/79/65 50/65/54
f 60/72/60 68/80/66 61/73/61
f 59/74/62 65/81/67 66/82/68
f 56/71/59 64/83/69 57/75/63
f 55/77/64 54/84/12 62/85/70
f 76/86/14 61/73/61 68/80/66
f 59/74/62 67/87/71 60/72/60
f 58/79/65 64/83/69 65/81/67
f 55/77/64 63/88/72 56/71/59
f 62/85/70 54/89/12 69/90/73
f 76/91/14 68/80/66 75/92/74
f 66/82/68 74/93/75 67/87/71
f 64/83/69 72/94/76 65/81/67
f 62/85/70 70/95/77 63/88/72
f 68/80/66 74/93/75 75/92/74
f 65/81/67 73/96/78 66/82/68
f 63/88/72 71/97/79 64/83/69
f 73/96/78 82/98/80 74/93/75
f 71/97/79 80/99/81 72/94/76
f 69/90/73 78/100/82 70/95/77
f 75/92/74 82/98/80 83/101/83
f 72/94/76 81/102/84 73/96/78
f 70/95/77 79/103/85 71/97/79
f 69/90/73 54/104/12 77/105/86
f 76/106/14 75/92/74 83/101/83
f 82/98/80 90/107/87 83/101/83
f 80/99/81 88/108/88 81/102/84
f 79/103/85 85/109/89 86/110/90
f 77/105/86 54/111/12 84/112/91
f 76/113/14 83/101/83 90/107/87
f 81/102/84 89/114/92 82/98/80
f 80/99/81 86/110/90 87/115/93
f 77/105/86 85/109/89 78/100/82
f 87/116/93 95/117/94 88/118/88
f 86/119/90 92/120/95 93/121/96
f 84/122/91 54/123/12 91/124/97
f 76/125/14 90/126/87 97/127/98
f 88/118/88 96/128/99 89/129/92
f 87/116/93 93/121/96 94/130/100
f 84/122/91 92/120/95 85/131/89
f 89/129/92 97/127/98 90/126/87
f 76/132/14 97/127/98 104/133/101
f 95/117/94 103/134/102 96/128/99
f 94/130/100 100/135/103 101/136/104
f 91/124/97 99/137/105 92/120/95
f 96/128/99 104/133/101 97/127/98
f 94/130/100 102/138/106 95/117/94
f 93/121/96 99/137/105 100/135/103
f 91/124/97 54/139/12 98/140/107
f 101/136/104 107/141/108 108/142/109
f 98/140/107 106/143/110 99/137/105
f 103/134/102 111/144/111 104/133/101
f 101/136/104 109/145/112 102/138/106
f 100/135/103 106/143/110 107/141/108
f 98/140/107 54/146/12 105/147/113
f 76/148/14 104/133/101 111/144/111
f 102/138/106 110/149/114 103/134/102
f 110/149/114 4/6/6 111/144/111
f 108/142/109 3/9/9 109/145/112
f 107/141/108 1/3/3 2/11/11
f 105/147/113 54/150/12 112/1/1
f 76/151/14 111/144/111 4/6/6
f 109/145/112 114/4/4 110/149/114
f 108/142/109 2/11/11 113/7/7
f 105/147/113 1/3/3 106/143/110
f 112/1/1 5/13/13 6/2/2
f 114/4/4 10/15/15 11/5/5
f 113/7/7 8/16/16 9/8/8
f 1/3/3 6/2/2 7/10/10
f 114/4/4 3/9/9 9/8/8
f 113/7/7 2/11/11 7/10/10
f 8/16/16 15/24/22 16/17/17
f 6/2/2 13/25/23 14/18/18
f 9/8/8 16/17/17 17/23/21
f 7/10/10 14/18/18 15/24/22
f 5/13/13 12/20/19 13/25/23
f 10/15/15 17/23/21 18/22/20
f 16/17/17 23/31/28 24/28/25
f 14/18/18 21/32/29 22/29/26
f 12/20/19 19/34/30 20/30/27
f 17/23/21 24/28/25 25/27/24
f 15/24/22 22/29/26 23/31/28
f 13/25/23 20/30/27 21/32/29
f 22/29/26 21/32/29 28/35/31
f 20/30/27 19/34/30 26/37/33
f 24/28/25 31/43/37 32/39/35
f 22/29/26 29/36/32 30/40/36
f 20/30/27 27/38/34 28/35/31
f 23/31/28 30/40/36 31/43/37
f 32/39/35 31/43/37 38/44/38
f 29/36/32 36/52/44 37/46/40
f 28/35/31 27/38/34 34/47/41
f 30/40/36 37/46/40 38/44/38
f 28/35/31 35/48/42 36/52/44
f 26/37/33 33/50/43 34/47/41
f 35/48/42 34/47/41 41/53/45
f 37/46/40 44/61/51 45/59/49
f 35/48/42 42/54/46 43/60/50
f 33/50/43 40/56/47 41/53/45
f 38/44/38 45/59/49 46/58/48
f 36/52/44 43/60/50 44/61/51
f 44/61/51 51/67/56 52/64/53
f 42/54/46 49/68/57 50/65/54
f 40/56/47 47/70/58 48/66/55
f 46/58/48 45/59/49 52/64/53
f 44/61/51 43/60/50 50/65/54
f 42/54/46 41/53/45 48/66/55
f 47/70/58 55/77/64 56/71/59
f 53/63/52 52/64/53 60/72/60
f 50/65/54 58/79/65 59/74/62
f 48/66/55 56/71/59 57/75/63
f 51/67/56 59/74/62 60/72/60
f 49/68/57 57/75/63 58/79/65
f 60/72/60 67/87/71 68/80/66
f 59/74/62 58/79/65 65/81/67
f 56/71/59 63/88/72 64/83/69
f 59/74/62 66/82/68 67/87/71
f 58/79/65 57/75/63 64/83/69
f 55/77/64 62/85/70 63/88/72
f 66/82/68 73/96/78 74/93/75
f 64/83/69 71/97/79 72/94/76
f 62/85/70 69/90/73 70/95/77
f 68/80/66 67/87/71 74/93/75
f 65/81/67 72/94/76 73/96/78
f 63/88/72 70/95/77 71/97/79
f 73/96/78 81/102/84 82/98/80
f 71/97/79 79/103/85 80/99/81
f 69/90/73 77/105/86 78/100/82
f 75/92/74 74/93/75 82/98/80
f 72/94/76 80/99/81 81/102/84
f 70/95/77 78/100/82 79/103/85
f 82/98/80 89/114/92 90/107/87
f 80/99/81 87/115/93 88/108/88
f 79/103/85 78/100/82 85/109/89
f 81/102/84 88/108/88 89/114/92
f 80/99/81 79/103/85 86/110/90
f 77/105/86 84/112/91 85/109/89
f 87/116/93 94/130/100 95/117/94
f 86/119/90 85/131/89 92/120/95
f 88/118/88 95/117/94 96/128/99
f 87/116/93 86/119/90 93/121/96
f 84/122/91 91/124/97 92/120/95
f 89/129/92 96/128/99 97/127/98
f 95/117/94 102/138/106 103/134/102
f 94/130/100 93/121/96 100/135/103
f 91/124/97 98/140/107 99/137/105
f 96/128/99 103/134/102 104/133/101
f 94/130/100 101/136/104 102/138/106
f 93/121/96 92/120/95 99/137/105
f 101/136/104 100/135/103 107/141/108
f 98/140/107 105/147/113 106/143/110
f 103/134/102 110/149/114 111/144/111
f 101/136/104 108/142/109 109/145/112
f 100/135/103 99/137/105 106/143/110
f 102/138/106 109/145/112 110/149/114
f 110/149/114 114/4/4 4/6/6
f 108/142/109 113/7/7 3/9/9
f 107/141/108 106/143/110 1/3/3
f 109/145/112 3/9/9 114/4/4
f 108/142/109 107/141/108 2/11/11
f 105/147/113 112/1/1 1/3/3
