# Blender v3.0.0 OBJ File: 'newship.blend'
# www.blender.org
mtllib leadership.mtl
o Cube.001_Cube.003
v 0.745684 -0.190802 -0.911285
v 0.745684 0.190802 -0.911285
v 0.000000 -0.190802 -0.532768
v 0.000000 0.190802 -0.532768
v 0.000000 0.000000 1.000000
v 0.000000 0.000000 1.000000
v 1.334160 0.000000 -0.085758
v 1.334160 0.000000 -0.085758
v 0.000000 0.190802 0.233616
v 0.000000 -0.190802 0.233616
v -0.745684 -0.190802 -0.911285
v -0.745684 0.190802 -0.911285
v -1.334160 0.000000 -0.085758
v -1.334160 0.000000 -0.085758
vt 0.301314 0.755164
vt 0.397943 0.549524
vt 0.397943 0.755164
vt 0.343023 0.328100
vt 0.498367 0.019545
vt 0.498367 0.452914
vt 0.998367 0.528347
vt 0.843023 0.219792
vt 0.998367 0.094978
vt 0.693666 0.339795
vt 0.738164 0.546259
vt 0.193666 0.208097
vt 0.098261 0.798825
vt 0.049947 0.549525
vt 0.049947 0.549525
vt 0.401208 0.549524
vt 0.401208 0.549524
vt 0.401208 0.549524
vt 0.298049 0.755164
vt 0.201420 0.549524
vt 0.298049 0.549524
vt 0.075171 0.546259
vt 0.575171 0.001633
vt 0.501633 0.251870
vt 0.001633 0.296022
vt 0.101527 0.798825
vt 0.149841 0.549525
vt 0.198155 0.798825
vt 0.401208 0.549524
vt 0.401208 0.549524
vt 0.301314 0.549524
vt 0.238164 0.001633
vt 0.001633 0.798825
vt 0.201420 0.755164
vt 0.149841 0.549525
vt 0.401208 0.549524
vn -0.4526 0.0000 -0.8917
vn 0.1929 -0.9522 0.2371
vn 0.1929 0.9522 0.2371
vn 0.0846 0.9824 0.1667
vn 0.1416 -0.9899 0.0000
vn 0.0000 0.0000 1.0000
vn 0.4526 0.0000 -0.8917
vn -0.1929 -0.9522 0.2371
vn -0.1929 0.9522 0.2371
vn -0.0846 0.9824 0.1667
vn -0.0846 -0.9824 0.1667
vn -0.8143 0.0000 -0.5805
vn 0.1416 0.9899 0.0000
vn 0.0846 -0.9824 0.1667
vn 0.8143 0.0000 -0.5805
vn -0.1416 0.9899 0.0000
vn -0.1416 -0.9899 0.0000
usemtl Glossy_Red_Plastic
s off
f 4/1/1 1/2/1 3/3/1
f 10/4/2 7/5/2 5/6/2
f 8/7/3 9/8/3 6/9/3
f 4/10/4 8/7/4 2/11/4
f 3/12/5 7/5/5 10/4/5
f 1/13/6 8/14/6 7/15/6
f 8/16/6 5/17/6 7/18/6
f 11/19/7 4/20/7 3/21/7
f 10/4/8 5/6/8 13/22/8
f 14/23/9 6/9/9 9/8/9
f 14/23/10 4/10/10 12/24/10
f 3/12/11 13/22/11 11/25/11
f 11/26/12 14/27/12 12/28/12
f 14/29/6 5/17/6 6/30/6
f 4/1/1 2/31/1 1/2/1
f 4/10/13 9/8/13 8/7/13
f 3/12/14 1/32/14 7/5/14
f 1/13/15 2/33/15 8/14/15
f 8/16/6 6/30/6 5/17/6
f 11/19/7 12/34/7 4/20/7
f 14/23/16 9/8/16 4/10/16
f 3/12/17 10/4/17 13/22/17
f 11/26/6 13/35/6 14/27/6
f 14/29/6 13/36/6 5/17/6
